<?xml version="1.0" encoding="UTF-8"?>
<!DOCTYPE svg
PUBLIC "-//W3C//DTD SVG 1.1//EN"
       "http://www.w3.org/Graphics/SVG/1.1/DTD/svg11.dtd">
<svg viewBox="105 8 1345 905" width="1240px" height="897px" xmlns="http://www.w3.org/2000/svg" version="1.1">
   <line x1="300" y1="308" x2="310" y2="308" style="stroke:#cb0;stroke-width:1;"/>
   <line x1="777" y1="437" x2="787" y2="437" style="stroke:#cb0;stroke-width:1;"/>
   <line x1="310" y1="308" x2="777" y2="437" style="stroke:#cb0;stroke-width:1;"/>
   <line x1="307.5" y1="308" x2="303.96446609407" y2="311.53553390593" style="stroke:#cb0;stroke-width:2;"/>
   <line x1="307.5" y1="308" x2="303.96446609407" y2="304.46446609407" style="stroke:#cb0;stroke-width:2;"/>
   <line x1="782" y1="437" x2="778.46446609407" y2="440.53553390593" style="stroke:#cb0;stroke-width:2;"/>
   <line x1="782" y1="437" x2="778.46446609407" y2="433.46446609407" style="stroke:#cb0;stroke-width:2;"/>
   <line x1="895" y1="193" x2="885" y2="193" style="stroke:#0bf;stroke-width:1;"/>
   <line x1="397" y1="447" x2="387" y2="447" style="stroke:#0bf;stroke-width:1;"/>
   <line x1="885" y1="193" x2="397" y2="447" style="stroke:#0bf;stroke-width:1;"/>
   <line x1="887.5" y1="193" x2="891.03553390593" y2="196.53553390593" style="stroke:#0bf;stroke-width:2;"/>
   <line x1="887.5" y1="193" x2="891.03553390593" y2="189.46446609407" style="stroke:#0bf;stroke-width:2;"/>
   <line x1="392" y1="447" x2="395.53553390593" y2="450.53553390593" style="stroke:#0bf;stroke-width:2;"/>
   <line x1="392" y1="447" x2="395.53553390593" y2="443.46446609407" style="stroke:#0bf;stroke-width:2;"/>
   <line x1="895" y1="213" x2="885" y2="213" style="stroke:#bbb;stroke-width:1;"/>
   <line x1="690" y1="492" x2="680" y2="492" style="stroke:#bbb;stroke-width:1;"/>
   <line x1="885" y1="213" x2="690" y2="492" style="stroke:#bbb;stroke-width:1;"/>
   <line x1="887.5" y1="213" x2="891.03553390593" y2="216.53553390593" style="stroke:#bbb;stroke-width:2;"/>
   <line x1="887.5" y1="213" x2="891.03553390593" y2="209.46446609407" style="stroke:#bbb;stroke-width:2;"/>
   <line x1="685" y1="492" x2="688.53553390593" y2="495.53553390593" style="stroke:#bbb;stroke-width:2;"/>
   <line x1="685" y1="492" x2="688.53553390593" y2="488.46446609407" style="stroke:#bbb;stroke-width:2;"/>
   <line x1="895" y1="233" x2="885" y2="233" style="stroke:#bbb;stroke-width:1;"/>
   <line x1="715" y1="120" x2="705" y2="120" style="stroke:#bbb;stroke-width:1;"/>
   <line x1="885" y1="233" x2="715" y2="120" style="stroke:#bbb;stroke-width:1;"/>
   <line x1="887.5" y1="233" x2="891.03553390593" y2="236.53553390593" style="stroke:#bbb;stroke-width:2;"/>
   <line x1="887.5" y1="233" x2="891.03553390593" y2="229.46446609407" style="stroke:#bbb;stroke-width:2;"/>
   <line x1="710" y1="120" x2="713.53553390593" y2="123.53553390593" style="stroke:#bbb;stroke-width:2;"/>
   <line x1="710" y1="120" x2="713.53553390593" y2="116.46446609407" style="stroke:#bbb;stroke-width:2;"/>
   <line x1="1121" y1="538" x2="1111" y2="538" style="stroke:#0bf;stroke-width:1;"/>
   <line x1="310" y1="88" x2="300" y2="88" style="stroke:#0bf;stroke-width:1;"/>
   <line x1="1111" y1="538" x2="310" y2="88" style="stroke:#0bf;stroke-width:1;"/>
   <line x1="1113.5" y1="538" x2="1117.0355339059" y2="541.53553390593" style="stroke:#0bf;stroke-width:2;"/>
   <line x1="1113.5" y1="538" x2="1117.0355339059" y2="534.46446609407" style="stroke:#0bf;stroke-width:2;"/>
   <line x1="305" y1="88" x2="308.53553390593" y2="91.535533905933" style="stroke:#0bf;stroke-width:2;"/>
   <line x1="305" y1="88" x2="308.53553390593" y2="84.464466094067" style="stroke:#0bf;stroke-width:2;"/>
   <line x1="1121" y1="518" x2="1111" y2="518" style="stroke:#c00;stroke-width:1;"/>
   <line x1="1012" y1="73" x2="1002" y2="73" style="stroke:#c00;stroke-width:1;"/>
   <line x1="1111" y1="518" x2="1012" y2="73" style="stroke:#c00;stroke-width:1;"/>
   <line x1="1113.5" y1="518" x2="1117.0355339059" y2="521.53553390593" style="stroke:#c00;stroke-width:2;"/>
   <line x1="1113.5" y1="518" x2="1117.0355339059" y2="514.46446609407" style="stroke:#c00;stroke-width:2;"/>
   <line x1="1007" y1="73" x2="1010.5355339059" y2="76.535533905933" style="stroke:#c00;stroke-width:2;"/>
   <line x1="1007" y1="73" x2="1010.5355339059" y2="69.464466094067" style="stroke:#c00;stroke-width:2;"/>
   <rect width="99" height="20" x="606" y="90" style="fill:#007;stroke:black;"/>
   <text width="99" height="20" x="611" y="104" style="fill:#fff;" font-family="Arial" font-size="16px"> caja</text>
   <rect width="99" height="20" x="606" y="110" style="fill:#aea;stroke:black;"/>
   <text width="99" height="20" x="611" y="124" style="fill:black;" font-family="Arial" font-size="16px">caja_id</text>
   <rect width="99" height="20" x="606" y="130" style="fill:none;stroke:black;"/>
   <text width="99" height="20" x="611" y="144" style="fill:black;" font-family="Arial" font-size="16px">caja_numero</text>
   <rect width="99" height="20" x="606" y="150" style="fill:none;stroke:black;"/>
   <text width="99" height="20" x="611" y="164" style="fill:black;" font-family="Arial" font-size="16px">caja_nombre</text>
   <rect width="99" height="20" x="606" y="170" style="fill:none;stroke:black;"/>
   <text width="99" height="20" x="611" y="184" style="fill:black;" font-family="Arial" font-size="16px">caja_efectivo</text>
   <rect width="149" height="20" x="787" y="407" style="fill:#007;stroke:black;"/>
   <text width="149" height="20" x="792" y="421" style="fill:#fff;" font-family="Arial" font-size="16px"> categoria</text>
   <rect width="149" height="20" x="787" y="427" style="fill:#aea;stroke:black;"/>
   <text width="149" height="20" x="792" y="441" style="fill:black;" font-family="Arial" font-size="16px">categoria_id</text>
   <rect width="149" height="20" x="787" y="447" style="fill:none;stroke:black;"/>
   <text width="149" height="20" x="792" y="461" style="fill:black;" font-family="Arial" font-size="16px">categoria_nombre</text>
   <rect width="149" height="20" x="787" y="467" style="fill:none;stroke:black;"/>
   <text width="149" height="20" x="792" y="481" style="fill:black;" font-family="Arial" font-size="16px">categoria_ubicacion</text>
   <rect width="200" height="20" x="480" y="462" style="fill:#007;stroke:black;"/>
   <text width="200" height="20" x="485" y="476" style="fill:#fff;" font-family="Arial" font-size="16px"> cliente</text>
   <rect width="200" height="20" x="480" y="482" style="fill:#aea;stroke:black;"/>
   <text width="200" height="20" x="485" y="496" style="fill:black;" font-family="Arial" font-size="16px">cliente_id</text>
   <rect width="200" height="20" x="480" y="502" style="fill:none;stroke:black;"/>
   <text width="200" height="20" x="485" y="516" style="fill:black;" font-family="Arial" font-size="16px">cliente_tipo_documento</text>
   <rect width="200" height="20" x="480" y="522" style="fill:none;stroke:black;"/>
   <text width="200" height="20" x="485" y="536" style="fill:black;" font-family="Arial" font-size="16px">cliente_numero_documento</text>
   <rect width="200" height="20" x="480" y="542" style="fill:none;stroke:black;"/>
   <text width="200" height="20" x="485" y="556" style="fill:black;" font-family="Arial" font-size="16px">cliente_nombre</text>
   <rect width="200" height="20" x="480" y="562" style="fill:none;stroke:black;"/>
   <text width="200" height="20" x="485" y="576" style="fill:black;" font-family="Arial" font-size="16px">cliente_apellido</text>
   <rect width="200" height="20" x="480" y="582" style="fill:none;stroke:black;"/>
   <text width="200" height="20" x="485" y="596" style="fill:black;" font-family="Arial" font-size="16px">cliente_provincia</text>
   <rect width="200" height="20" x="480" y="602" style="fill:none;stroke:black;"/>
   <text width="200" height="20" x="485" y="616" style="fill:black;" font-family="Arial" font-size="16px">cliente_ciudad</text>
   <rect width="200" height="20" x="480" y="622" style="fill:none;stroke:black;"/>
   <text width="200" height="20" x="485" y="636" style="fill:black;" font-family="Arial" font-size="16px">cliente_direccion</text>
   <rect width="200" height="20" x="480" y="642" style="fill:none;stroke:black;"/>
   <text width="200" height="20" x="485" y="656" style="fill:black;" font-family="Arial" font-size="16px">cliente_telefono</text>
   <rect width="200" height="20" x="480" y="662" style="fill:none;stroke:black;"/>
   <text width="200" height="20" x="485" y="676" style="fill:black;" font-family="Arial" font-size="16px">cliente_email</text>
   <rect width="142" height="20" x="378" y="268" style="fill:#007;stroke:black;"/>
   <text width="142" height="20" x="383" y="282" style="fill:#fff;" font-family="Arial" font-size="16px"> empresa</text>
   <rect width="142" height="20" x="378" y="288" style="fill:#aea;stroke:black;"/>
   <text width="142" height="20" x="383" y="302" style="fill:black;" font-family="Arial" font-size="16px">empresa_id</text>
   <rect width="142" height="20" x="378" y="308" style="fill:none;stroke:black;"/>
   <text width="142" height="20" x="383" y="322" style="fill:black;" font-family="Arial" font-size="16px">empresa_nombre</text>
   <rect width="142" height="20" x="378" y="328" style="fill:none;stroke:black;"/>
   <text width="142" height="20" x="383" y="342" style="fill:black;" font-family="Arial" font-size="16px">empresa_telefono</text>
   <rect width="142" height="20" x="378" y="348" style="fill:none;stroke:black;"/>
   <text width="142" height="20" x="383" y="362" style="fill:black;" font-family="Arial" font-size="16px">empresa_email</text>
   <rect width="142" height="20" x="378" y="368" style="fill:none;stroke:black;"/>
   <text width="142" height="20" x="383" y="382" style="fill:black;" font-family="Arial" font-size="16px">empresa_direccion</text>
   <rect width="122" height="20" x="1045" y="830" style="fill:#007;stroke:black;"/>
   <text width="122" height="20" x="1050" y="844" style="fill:#fff;" font-family="Arial" font-size="16px"> modulos</text>
   <rect width="122" height="20" x="1045" y="850" style="fill:#aea;stroke:black;"/>
   <text width="122" height="20" x="1050" y="864" style="fill:black;" font-family="Arial" font-size="16px">id_modulo</text>
   <rect width="122" height="20" x="1045" y="870" style="fill:none;stroke:black;"/>
   <text width="122" height="20" x="1050" y="884" style="fill:black;" font-family="Arial" font-size="16px">nombre_modulo</text>
   <rect width="180" height="20" x="120" y="58" style="fill:#007;stroke:black;"/>
   <text width="180" height="20" x="125" y="72" style="fill:#fff;" font-family="Arial" font-size="16px"> producto</text>
   <rect width="180" height="20" x="120" y="78" style="fill:#aea;stroke:black;"/>
   <text width="180" height="20" x="125" y="92" style="fill:black;" font-family="Arial" font-size="16px">producto_id</text>
   <rect width="180" height="20" x="120" y="98" style="fill:none;stroke:black;"/>
   <text width="180" height="20" x="125" y="112" style="fill:black;" font-family="Arial" font-size="16px">producto_codigo</text>
   <rect width="180" height="20" x="120" y="118" style="fill:none;stroke:black;"/>
   <text width="180" height="20" x="125" y="132" style="fill:black;" font-family="Arial" font-size="16px">producto_nombre</text>
   <rect width="180" height="20" x="120" y="138" style="fill:none;stroke:black;"/>
   <text width="180" height="20" x="125" y="152" style="fill:black;" font-family="Arial" font-size="16px">producto_stock_total</text>
   <rect width="180" height="20" x="120" y="158" style="fill:none;stroke:black;"/>
   <text width="180" height="20" x="125" y="172" style="fill:black;" font-family="Arial" font-size="16px">producto_tipo_unidad</text>
   <rect width="180" height="20" x="120" y="178" style="fill:none;stroke:black;"/>
   <text width="180" height="20" x="125" y="192" style="fill:black;" font-family="Arial" font-size="16px">producto_precio_compra</text>
   <rect width="180" height="20" x="120" y="198" style="fill:none;stroke:black;"/>
   <text width="180" height="20" x="125" y="212" style="fill:black;" font-family="Arial" font-size="16px">producto_precio_venta</text>
   <rect width="180" height="20" x="120" y="218" style="fill:none;stroke:black;"/>
   <text width="180" height="20" x="125" y="232" style="fill:black;" font-family="Arial" font-size="16px">producto_marca</text>
   <rect width="180" height="20" x="120" y="238" style="fill:none;stroke:black;"/>
   <text width="180" height="20" x="125" y="252" style="fill:black;" font-family="Arial" font-size="16px">producto_modelo</text>
   <rect width="180" height="20" x="120" y="258" style="fill:none;stroke:black;"/>
   <text width="180" height="20" x="125" y="272" style="fill:black;" font-family="Arial" font-size="16px">producto_estado</text>
   <rect width="180" height="20" x="120" y="278" style="fill:none;stroke:black;"/>
   <text width="180" height="20" x="125" y="292" style="fill:black;" font-family="Arial" font-size="16px">producto_foto</text>
   <rect width="180" height="20" x="120" y="298" style="fill:none;stroke:black;"/>
   <text width="180" height="20" x="125" y="312" style="fill:black;" font-family="Arial" font-size="16px">categoria_id</text>
   <rect width="123" height="20" x="264" y="417" style="fill:#007;stroke:black;"/>
   <text width="123" height="20" x="269" y="431" style="fill:#fff;" font-family="Arial" font-size="16px"> usuario</text>
   <rect width="123" height="20" x="264" y="437" style="fill:#aea;stroke:black;"/>
   <text width="123" height="20" x="269" y="451" style="fill:black;" font-family="Arial" font-size="16px">usuario_id</text>
   <rect width="123" height="20" x="264" y="457" style="fill:none;stroke:black;"/>
   <text width="123" height="20" x="269" y="471" style="fill:black;" font-family="Arial" font-size="16px">usuario_nombre</text>
   <rect width="123" height="20" x="264" y="477" style="fill:none;stroke:black;"/>
   <text width="123" height="20" x="269" y="491" style="fill:black;" font-family="Arial" font-size="16px">usuario_apellido</text>
   <rect width="123" height="20" x="264" y="497" style="fill:none;stroke:black;"/>
   <text width="123" height="20" x="269" y="511" style="fill:black;" font-family="Arial" font-size="16px">usuario_email</text>
   <rect width="123" height="20" x="264" y="517" style="fill:none;stroke:black;"/>
   <text width="123" height="20" x="269" y="531" style="fill:black;" font-family="Arial" font-size="16px">usuario_usuario</text>
   <rect width="123" height="20" x="264" y="537" style="fill:none;stroke:black;"/>
   <text width="123" height="20" x="269" y="551" style="fill:black;" font-family="Arial" font-size="16px">usuario_clave</text>
   <rect width="123" height="20" x="264" y="557" style="fill:none;stroke:black;"/>
   <text width="123" height="20" x="269" y="571" style="fill:black;" font-family="Arial" font-size="16px">usuario_foto</text>
   <rect width="123" height="20" x="264" y="577" style="fill:none;stroke:black;"/>
   <text width="123" height="20" x="269" y="591" style="fill:black;" font-family="Arial" font-size="16px">caja_id</text>
   <rect width="107" height="20" x="895" y="23" style="fill:#007;stroke:black;"/>
   <text width="107" height="20" x="900" y="37" style="fill:#fff;" font-family="Arial" font-size="16px"> venta</text>
   <rect width="107" height="20" x="895" y="43" style="fill:#aea;stroke:black;"/>
   <text width="107" height="20" x="900" y="57" style="fill:black;" font-family="Arial" font-size="16px">venta_id</text>
   <rect width="107" height="20" x="895" y="63" style="fill:none;stroke:black;"/>
   <text width="107" height="20" x="900" y="77" style="fill:black;" font-family="Arial" font-size="16px">venta_codigo</text>
   <rect width="107" height="20" x="895" y="83" style="fill:none;stroke:black;"/>
   <text width="107" height="20" x="900" y="97" style="fill:black;" font-family="Arial" font-size="16px">venta_fecha</text>
   <rect width="107" height="20" x="895" y="103" style="fill:none;stroke:black;"/>
   <text width="107" height="20" x="900" y="117" style="fill:black;" font-family="Arial" font-size="16px">venta_hora</text>
   <rect width="107" height="20" x="895" y="123" style="fill:none;stroke:black;"/>
   <text width="107" height="20" x="900" y="137" style="fill:black;" font-family="Arial" font-size="16px">venta_total</text>
   <rect width="107" height="20" x="895" y="143" style="fill:none;stroke:black;"/>
   <text width="107" height="20" x="900" y="157" style="fill:black;" font-family="Arial" font-size="16px">venta_pagado</text>
   <rect width="107" height="20" x="895" y="163" style="fill:none;stroke:black;"/>
   <text width="107" height="20" x="900" y="177" style="fill:black;" font-family="Arial" font-size="16px">venta_cambio</text>
   <rect width="107" height="20" x="895" y="183" style="fill:none;stroke:black;"/>
   <text width="107" height="20" x="900" y="197" style="fill:black;" font-family="Arial" font-size="16px">usuario_id</text>
   <rect width="107" height="20" x="895" y="203" style="fill:none;stroke:black;"/>
   <text width="107" height="20" x="900" y="217" style="fill:black;" font-family="Arial" font-size="16px">cliente_id</text>
   <rect width="107" height="20" x="895" y="223" style="fill:none;stroke:black;"/>
   <text width="107" height="20" x="900" y="237" style="fill:black;" font-family="Arial" font-size="16px">caja_id</text>
   <rect width="107" height="20" x="895" y="243" style="fill:none;stroke:black;"/>
   <text width="107" height="20" x="900" y="257" style="fill:black;" font-family="Arial" font-size="16px">id_modulo</text>
   <rect width="209" height="20" x="1121" y="368" style="fill:#007;stroke:black;"/>
   <text width="209" height="20" x="1126" y="382" style="fill:#fff;" font-family="Arial" font-size="16px"> venta_detalle</text>
   <rect width="209" height="20" x="1121" y="388" style="fill:#aea;stroke:black;"/>
   <text width="209" height="20" x="1126" y="402" style="fill:black;" font-family="Arial" font-size="16px">venta_detalle_id</text>
   <rect width="209" height="20" x="1121" y="408" style="fill:none;stroke:black;"/>
   <text width="209" height="20" x="1126" y="422" style="fill:black;" font-family="Arial" font-size="16px">venta_detalle_cantidad</text>
   <rect width="209" height="20" x="1121" y="428" style="fill:none;stroke:black;"/>
   <text width="209" height="20" x="1126" y="442" style="fill:black;" font-family="Arial" font-size="16px">venta_detalle_precio_compra</text>
   <rect width="209" height="20" x="1121" y="448" style="fill:none;stroke:black;"/>
   <text width="209" height="20" x="1126" y="462" style="fill:black;" font-family="Arial" font-size="16px">venta_detalle_precio_venta</text>
   <rect width="209" height="20" x="1121" y="468" style="fill:none;stroke:black;"/>
   <text width="209" height="20" x="1126" y="482" style="fill:black;" font-family="Arial" font-size="16px">venta_detalle_total</text>
   <rect width="209" height="20" x="1121" y="488" style="fill:none;stroke:black;"/>
   <text width="209" height="20" x="1126" y="502" style="fill:black;" font-family="Arial" font-size="16px">venta_detalle_descripcion</text>
   <rect width="209" height="20" x="1121" y="508" style="fill:none;stroke:black;"/>
   <text width="209" height="20" x="1126" y="522" style="fill:black;" font-family="Arial" font-size="16px">venta_codigo</text>
   <rect width="209" height="20" x="1121" y="528" style="fill:none;stroke:black;"/>
   <text width="209" height="20" x="1126" y="542" style="fill:black;" font-family="Arial" font-size="16px">producto_id</text>
</svg>
